<svg width="684" height="684" viewBox="0 0 684 684" fill="none" xmlns="http://www.w3.org/2000/svg">
<path d="M538.656 551.418C559.344 573.448 558.449 608.509 533.405 625.422C493.634 652.281 448.477 670.586 400.8 678.907C335.067 690.379 267.414 682.372 206.175 655.872C144.937 629.372 92.7882 585.536 56.1539 529.766C19.5196 473.995 6.0982e-06 408.726 0 342C-6.0982e-06 275.274 19.5195 210.005 56.1538 154.234C92.7881 98.4639 144.937 54.6284 206.175 28.1281C267.414 1.62786 335.067 -6.37941 400.799 5.09278C448.477 13.4138 493.634 31.7193 533.405 58.5776C558.449 75.4911 559.344 110.552 538.656 132.582L504.92 168.507C484.233 190.537 449.753 190.695 422.612 177.402C407.16 169.835 390.639 164.441 373.511 161.451C338.284 155.303 302.029 159.595 269.211 173.796C236.394 187.998 208.447 211.489 188.815 241.376C169.183 271.264 158.722 306.241 158.722 342C158.722 377.759 169.183 412.736 188.815 442.624C208.447 472.511 236.394 496.003 269.211 510.204C302.029 524.405 338.284 528.697 373.511 522.549C390.639 519.559 407.16 514.165 422.612 506.598C449.753 493.305 484.233 493.463 504.92 515.493L538.656 551.418Z" fill="white"/>
<path d="M538.656 551.418C559.344 573.448 558.45 608.508 533.405 625.422C511.447 640.25 487.789 652.512 462.888 661.922C420.875 677.797 376.147 685.242 331.257 683.831C286.367 682.42 242.195 672.182 201.262 653.7C177.001 642.745 154.159 629.022 133.176 612.844C109.243 594.391 110.552 559.344 132.582 538.656L168.507 504.92C190.537 484.233 224.959 486.241 251.211 501.211C256.199 504.055 261.327 506.669 266.578 509.04C288.514 518.944 312.186 524.431 336.243 525.187C360.299 525.943 384.269 521.953 406.784 513.446C412.174 511.409 417.456 509.123 422.612 506.597C449.753 493.305 484.233 493.463 504.92 515.493L538.656 551.418Z" fill="#0096DB"/>
<circle cx="342" cy="335.16" r="123.12" fill="#0096DB"/>
</svg>
