<?xml version="1.0" standalone="no"?>
<!DOCTYPE svg PUBLIC "-//W3C//DTD SVG 20010904//EN"
 "http://www.w3.org/TR/2001/REC-SVG-20010904/DTD/svg10.dtd">
<svg version="1.0" xmlns="http://www.w3.org/2000/svg"
 width="700.000000pt" height="700.000000pt" viewBox="0 0 700.000000 700.000000"
 preserveAspectRatio="xMidYMid meet">
<metadata>
Created by potrace 1.14, written by Peter Selinger 2001-2017
</metadata>
<g transform="translate(0.000000,700.000000) scale(0.100000,-0.100000)"
fill="#000000" stroke="none">
<path d="M3298 6995 c-1 -1 -46 -5 -99 -9 -53 -4 -104 -8 -115 -10 -10 -2 -41
-7 -69 -10 -27 -4 -72 -11 -100 -16 -27 -5 -61 -12 -75 -14 -209 -38 -523
-132 -677 -202 -28 -13 -55 -24 -58 -24 -11 0 -277 -134 -355 -180 -77 -44
-301 -189 -310 -200 -3 -3 -39 -31 -80 -62 -202 -151 -448 -396 -620 -617
-226 -291 -418 -640 -541 -988 -30 -86 -95 -306 -104 -351 -2 -12 -6 -30 -9
-40 -3 -9 -8 -30 -11 -47 -15 -88 -27 -153 -31 -175 -3 -14 -7 -45 -10 -70 -3
-25 -7 -56 -9 -70 -26 -150 -26 -716 0 -820 2 -8 6 -42 10 -75 3 -33 8 -67 10
-75 3 -8 7 -31 9 -50 16 -129 141 -570 190 -675 8 -16 23 -52 34 -80 119 -302
398 -738 634 -991 214 -228 487 -461 683 -581 11 -7 58 -36 104 -65 422 -260
982 -443 1487 -485 118 -10 527 -10 634 0 550 52 1063 225 1535 517 239 148
315 272 303 495 -9 161 -54 239 -268 466 -301 318 -333 345 -480 390 -62 20
-97 24 -200 24 -151 -1 -237 -21 -400 -95 -215 -97 -434 -158 -620 -175 -63
-5 -344 -5 -380 1 -19 3 -77 12 -129 20 -166 26 -326 78 -501 161 -82 40 -226
121 -255 145 -5 5 -44 35 -87 68 -74 57 -219 197 -286 276 -57 67 -178 255
-226 351 -65 129 -135 320 -152 417 -3 16 -6 32 -8 35 -4 7 -12 60 -30 196
-12 89 -13 285 -2 380 58 518 313 983 706 1286 114 88 121 93 185 131 430 257
909 333 1404 224 99 -22 263 -80 384 -135 154 -71 274 -99 418 -96 108 2 174
18 274 65 88 42 143 92 345 310 58 62 116 125 130 139 186 191 232 432 122
635 -30 55 -118 145 -174 179 -20 12 -80 48 -132 80 -85 52 -312 169 -406 210
-51 22 -238 93 -285 107 -22 7 -56 18 -75 25 -67 24 -308 83 -407 99 -27 5
-201 29 -293 42 -47 6 -526 15 -532 9z"/>
<path d="M3345 4820 c-105 -16 -149 -26 -230 -51 -272 -84 -538 -293 -692
-546 -78 -127 -144 -306 -168 -457 -13 -81 -14 -373 -1 -394 4 -6 9 -30 12
-54 4 -24 19 -81 34 -128 143 -436 493 -754 937 -852 76 -17 132 -22 253 -22
155 0 191 3 306 30 100 23 172 50 284 108 212 108 387 276 511 488 75 128 139
310 156 444 10 75 9 315 0 374 -77 463 -390 839 -830 999 -50 18 -118 36 -222
57 -48 9 -295 12 -350 4z"/>
</g>
</svg>
